<svg xmlns="http://www.w3.org/2000/svg" width="1024" height="520" viewBox="0 0 1024 520" role="img" aria-labelledby="title desc">
<title id="title">저장 확인 후 다음 품목으로 이동합니다</title><desc id="desc">앱과 위젯 · 같은 프로젝트 진행률 공유. 실제 상품 페이지가 아닌 이용 순서 설명용 도식입니다.</desc>
<defs><marker id="arrow" markerWidth="9" markerHeight="9" refX="7" refY="4" orient="auto"><path d="M0 0 8 4 0 8" fill="none" stroke="#69e3c5" stroke-width="1.5"/></marker></defs>
<g font-family="'Apple SD Gothic Neo','Noto Sans KR',Arial,sans-serif"><rect x="0" y="0" width="1024" height="520" rx="22" fill="#0c1722" /><rect x="36" y="26" width="61" height="42" rx="12" fill="#0b766b" /><text x="50" y="54" font-size="18" fill="#fff" font-weight="600">05</text><text x="117" y="52" font-size="29" fill="#f2f7fc" font-weight="700">저장 확인 후 다음 품목으로 이동합니다</text><text x="118" y="82" font-size="18" fill="#aec4d3" font-weight="400">앱과 위젯 · 같은 프로젝트 진행률 공유</text><rect x="36" y="103" width="446" height="365" rx="16" fill="#1c2c3b" /><text x="64" y="144" font-size="25" fill="#fff" font-weight="700">weekend-list.png</text><rect x="64" y="167" width="171" height="42" rx="12" fill="#0b766b" /><text x="78" y="195" font-size="18" fill="#fff" font-weight="600">저장 확인 ✓</text><text x="66" y="242" font-size="23" fill="#85e7cb" font-weight="400">✓ big notebook</text><text x="66" y="287" font-size="23" fill="#eaf4fb" font-weight="400">→ crayon</text><text x="66" y="332" font-size="23" fill="#eaf4fb" font-weight="400">○ shoes for running</text><text x="66" y="377" font-size="23" fill="#eaf4fb" font-weight="400">○ bicycle</text><text x="66" y="434" font-size="18" fill="#bbd0dd" font-weight="400">담음 1 / 전체 4 · 실패하면 이동 안 함</text><rect x="572" y="103" width="416" height="365" rx="16" fill="#eef4f5" /><text x="597" y="148" font-size="24" fill="#bd2737" font-weight="700">Target · 다음 검색</text><rect x="597" y="174" width="365" height="44" rx="12" fill="#fff" /><text x="615" y="203" font-size="23" fill="#334e5e" font-weight="400">crayon</text><g transform="translate(634 282)"><rect x="0" y="0" width="100" height="82" rx="7" fill="#b3bec7" /><path d="M8 0v-23l6-14 6 14v23" fill="#7e939a"/><path d="M26 0v-23l6-14 6 14v23" fill="#647680"/><path d="M44 0v-23l6-14 6 14v23" fill="#91a0a9"/><path d="M62 0v-23l6-14 6 14v23" fill="#a5b2bb"/><path d="M80 0v-23l6-14 6 14v23" fill="#52656f"/><text x="13" y="51" font-size="14" fill="#243b49" font-weight="700">CRAYONS</text></g><g transform="translate(789 282)"><rect x="0" y="0" width="100" height="82" rx="7" fill="#b3bec7" /><path d="M8 0v-23l6-14 6 14v23" fill="#7e939a"/><path d="M26 0v-23l6-14 6 14v23" fill="#647680"/><path d="M44 0v-23l6-14 6 14v23" fill="#91a0a9"/><path d="M62 0v-23l6-14 6 14v23" fill="#a5b2bb"/><path d="M80 0v-23l6-14 6 14v23" fill="#52656f"/><text x="13" y="51" font-size="14" fill="#243b49" font-weight="700">CRAYONS</text></g><circle cx="925" cy="409" r="42" fill="#08796f" stroke="#acf5de" stroke-width="3"/><text x="894" y="405" font-size="15" fill="#fff" font-weight="700">Curator</text><text x="911" y="430" font-size="19" fill="#fff" font-weight="700">1/4</text><text x="601" y="432" font-size="17" fill="#395568" font-weight="400">건너뛴 항목도 다시 고를 수 있어요.</text><path d="M494 268 L559 268" fill="none" stroke="#69e3c5" stroke-width="4" marker-end="url(#arrow)"/><text x="38" y="499" font-size="15" fill="#829eaf" font-weight="400">SHOPITEM CURATOR  /  이용 스토리보드 · 화면 예시</text></g></svg>
